<svg width="42" height="42" viewBox="0 0 42 42" fill="none" xmlns="http://www.w3.org/2000/svg">
<path d="M21 15.5326C17.9895 15.5326 15.5326 17.9894 15.5326 21C15.5326 24.0105 17.9895 26.4674 21 26.4674C24.0106 26.4674 26.4674 24.0105 26.4674 21C26.4674 17.9894 24.0106 15.5326 21 15.5326ZM37.3981 21C37.3981 18.7359 37.4186 16.4924 37.2914 14.2324C37.1643 11.6074 36.5655 9.27773 34.6459 7.3582C32.7223 5.43457 30.3967 4.83984 27.7717 4.7127C25.5076 4.58555 23.2641 4.60606 21.0041 4.60606C18.7401 4.60606 16.4965 4.58555 14.2365 4.7127C11.6115 4.83984 9.28185 5.43867 7.36232 7.3582C5.43868 9.28184 4.84396 11.6074 4.71681 14.2324C4.58966 16.4965 4.61017 18.74 4.61017 21C4.61017 23.26 4.58966 25.5076 4.71681 27.7676C4.84396 30.3926 5.44279 32.7223 7.36232 34.6418C9.28595 36.5654 11.6115 37.1601 14.2365 37.2873C16.5006 37.4144 18.7442 37.3939 21.0041 37.3939C23.2682 37.3939 25.5117 37.4144 27.7717 37.2873C30.3967 37.1601 32.7264 36.5613 34.6459 34.6418C36.5696 32.7182 37.1643 30.3926 37.2914 27.7676C37.4227 25.5076 37.3981 23.2641 37.3981 21ZM21 29.4123C16.3447 29.4123 12.5877 25.6553 12.5877 21C12.5877 16.3447 16.3447 12.5877 21 12.5877C25.6553 12.5877 29.4123 16.3447 29.4123 21C29.4123 25.6553 25.6553 29.4123 21 29.4123ZM29.7569 14.2078C28.6699 14.2078 27.7922 13.3301 27.7922 12.2432C27.7922 11.1562 28.6699 10.2785 29.7569 10.2785C30.8438 10.2785 31.7215 11.1562 31.7215 12.2432C31.7218 12.5013 31.6712 12.7569 31.5726 12.9954C31.474 13.2339 31.3293 13.4506 31.1468 13.6331C30.9643 13.8156 30.7476 13.9603 30.5091 14.0589C30.2706 14.1575 30.0149 14.2081 29.7569 14.2078Z" fill="#fff"/>
</svg>
